<svg id="Layer_1" data-name="Layer 1" xmlns="http://www.w3.org/2000/svg" viewBox="0 0 203.78 50.01"><defs><style>.cls-1{fill:#ea3b41;}.cls-2{fill:#0f3050;}.cls-3{fill:#f6edd2;}.cls-4{fill:#e1d1a8;}</style></defs><title>union-station-logo</title><path id="Path_56" data-name="Path 56" class="cls-1" d="M77.22,21.21c0,1.2,0,2.39,0,3.55,0,4.88-3,5.91-5.47,5.91-5.47,0-5.31-5.44-5.31-5.44V11.79c-2.65,0-3.87.35-4.12,2.19a2.5,2.5,0,0,0,.41,1.93,2.18,2.18,0,0,0,1.73.51l0,.43a1.38,1.38,0,0,1-1.27,1.48,1.32,1.32,0,0,1-.44,0,.33.33,0,0,1-.16-.05,3.52,3.52,0,0,1-1.41-.9,4.28,4.28,0,0,1-.95-3.6c.46-3.63,3.53-4,6.18-4v0h2.09V24.74c.11,2.57.76,3.85,3.22,3.85s3.42-1.09,3.42-3.82c0-1.14-.06-2.33-.08-3.47-.14-4.5-.36-9.64,1.62-12.41a1.74,1.74,0,0,1,2.42-.38,1.83,1.83,0,0,1,.32.3l.13.16C76.89,10.49,77,16.09,77.22,21.21Z"/><path id="Path_57" data-name="Path 57" class="cls-1" d="M89.38,12.52v15.6H87.3v0a14.06,14.06,0,0,0-3.63-9.75c-.17-.22-.36-.46-.52-.68V28.12H81.07V12.52h2.08c0,1.76.95,3,2.17,4.55a25.45,25.45,0,0,1,2,2.82V12.52Z"/><path id="Path_58" data-name="Path 58" class="cls-1" d="M93.28,28.12V12.52h2.09v15.6Z"/><path id="Path_59" data-name="Path 59" class="cls-1" d="M99.27,24V16.58a4.4,4.4,0,0,1,8.8,0h0V24a4.4,4.4,0,1,1-8.8,0Zm2.09-7.45V24a2.33,2.33,0,1,0,4.66,0V16.58a2.33,2.33,0,0,0-4.66,0Z"/><path id="Path_60" data-name="Path 60" class="cls-1" d="M120.29,12.52v15.6h-2.08v0a14.06,14.06,0,0,0-3.63-9.75c-.17-.22-.36-.46-.52-.68V28.12H112V12.52h2.08c0,1.76.94,3,2.16,4.55a23,23,0,0,1,2,2.82V12.52Z"/><path id="Path_61" data-name="Path 61" class="cls-1" d="M132.86,29a6.15,6.15,0,0,1-1.14-5.36,4.47,4.47,0,0,1,4-3.63A4.28,4.28,0,0,1,140,22.33a3.94,3.94,0,0,1,.25,2,1.47,1.47,0,0,1-1.64,1.27,1.54,1.54,0,0,1-.78-.35l-.08-.08a2.13,2.13,0,0,0,.36-1.93,2.27,2.27,0,0,0-2.25-1.14,2.48,2.48,0,0,0-2.17,2,4.22,4.22,0,0,0,.76,3.63,4.67,4.67,0,0,0,8-1.68c.73-2.25-.25-4.58-2.55-6.2-.46-.33-.89-.63-1.33-.9-2-1.35-3.95-2.63-3.95-5.15a4,4,0,0,1,4-4.06h.11a4.18,4.18,0,0,1,3.93,2.57,3.74,3.74,0,0,1,.3,1.36,1.39,1.39,0,0,1-1.31,1.47,1.41,1.41,0,0,1-1.08-.42,1.48,1.48,0,0,0,.16-1.6,2,2,0,0,0-2-1.3,2,2,0,0,0-2,2h0c0,1.36,1,2.09,3,3.39.46.3.92.6,1.38.95,3.66,2.57,4.12,6.1,3.34,8.53A6.71,6.71,0,0,1,132.87,29Z"/><path id="Path_62" data-name="Path 62" class="cls-1" d="M154.78,14.63h-3.52V28.12H149.2V14.63h-3.63l.46-2.08h8.13Z"/><path id="Path_63" data-name="Path 63" class="cls-1" d="M163,28.12l-.62-2.41a6.58,6.58,0,0,0-4-.78l-.81,3.2h-2.09l4-15.6h1.54l4,15.6Zm-1.27-4.93-1.43-5.63L159,22.79a8.24,8.24,0,0,1,2.79.4Z"/><path id="Path_64" data-name="Path 64" class="cls-1" d="M174.83,14.63H171.3V28.12h-2.06V14.63h-3.63l.46-2.08h8.13Z"/><path id="Path_65" data-name="Path 65" class="cls-1" d="M178.08,28.12V12.52h2.08v15.6Z"/><path id="Path_66" data-name="Path 66" class="cls-1" d="M183.41,24V16.58a4.41,4.41,0,0,1,8.81,0V24a4.41,4.41,0,1,1-8.81,0Zm2.09-7.45V24a2.33,2.33,0,1,0,4.66,0V16.58a2.33,2.33,0,0,0-4.66,0Z"/><path id="Path_67" data-name="Path 67" class="cls-1" d="M203.78,12.52v15.6H201.7v0a14,14,0,0,0-3.63-9.75c-.16-.22-.35-.46-.52-.68V28.12h-2.08V12.52h2.08c0,1.76.95,3,2.17,4.55a23,23,0,0,1,2,2.82V12.52Z"/><path id="Path_68" data-name="Path 68" class="cls-2" d="M103.69,39.66a1.51,1.51,0,0,0,1.4,1.13c.61,0,1.09-.3,1.09-1,0-1.52-3.26-.76-3.26-3.23a1.83,1.83,0,0,1,1.78-1.86h.16a1.85,1.85,0,0,1,1.31.5l.13-.41h.56l0,1.66-.74.09a1.25,1.25,0,0,0-1.25-1,.9.9,0,0,0-1,.85v.11c0,1.52,3.29.82,3.29,3.16a1.88,1.88,0,0,1-1.81,2,1.31,1.31,0,0,1-.28,0,2.18,2.18,0,0,1-1.49-.55l-.18.46H103l-.18-1.75Z"/><path id="Path_69" data-name="Path 69" class="cls-2" d="M114.22,35.71H113v5l.83.15-.1.77h-2.51l-.1-.77.83-.15v-5h-1.23l-.1.86h-.72l-.14-1.73h5.43l-.13,1.73h-.72Z"/><path id="Path_70" data-name="Path 70" class="cls-2" d="M118.18,40.33a.69.69,0,0,1-.06,1.37.7.7,0,0,1-.66-.68.66.66,0,0,1,.62-.69Z"/><path id="Path_71" data-name="Path 71" class="cls-2" d="M128.84,34.84l.1.81-.73.1v4.94h1.73l.19-.87h.69l0,1.77h-4.3l-.1-.81.74-.11V35.75l-.74-.1.1-.81Z"/><path id="Path_72" data-name="Path 72" class="cls-2" d="M139.71,38.21a3.3,3.3,0,1,1-3.3-3.51,3.24,3.24,0,0,1,3.31,3.17C139.72,38,139.72,38.1,139.71,38.21Zm-1.11,0c0-1.52-.81-2.54-2.19-2.54s-2.18,1-2.18,2.54.81,2.56,2.18,2.56S138.6,39.72,138.6,38.21Z"/><path id="Path_73" data-name="Path 73" class="cls-2" d="M142.08,35.65l.1-.81h2.45l.09.81-.84.15V39c0,1.2.7,1.82,1.51,1.82,1,0,1.56-.65,1.56-1.77V35.8l-.84-.15.1-.81h2.45l.1.81-.81.15v3.09c0,2-1.22,2.86-2.57,2.86a2.48,2.48,0,0,1-2.53-2.42,3,3,0,0,1,0-.31V35.8Z"/><path id="Path_74" data-name="Path 74" class="cls-2" d="M154,34.84l.09.81-1,.15v4.84l1,.15-.09.81h-2.79l-.1-.81,1-.15V35.8l-1-.15.1-.81Z"/><path id="Path_75" data-name="Path 75" class="cls-2" d="M157.68,39.66a1.51,1.51,0,0,0,1.4,1.13c.61,0,1.09-.3,1.09-1,0-1.52-3.26-.76-3.26-3.23a1.83,1.83,0,0,1,1.79-1.86h.15a1.81,1.81,0,0,1,1.31.5l.14-.41h.55l0,1.66-.74.09a1.25,1.25,0,0,0-1.25-1,.9.9,0,0,0-1,.85v.11c0,1.52,3.29.82,3.29,3.16a1.88,1.88,0,0,1-1.81,2,1.31,1.31,0,0,1-.28,0,2.18,2.18,0,0,1-1.49-.55l-.18.46H157l-.18-1.75Z"/><path id="Path_76" data-name="Path 76" class="cls-2" d="M187,34.7a2.92,2.92,0,0,0-1.78.54,2.29,2.29,0,0,1-2.6,0,3.18,3.18,0,0,0-3.57,0,2.29,2.29,0,0,1-2.6,0,3.18,3.18,0,0,0-3.57,0,2.29,2.29,0,0,1-2.6,0,2.92,2.92,0,0,0-1.78-.54h-.27v.92h.27a2.17,2.17,0,0,1,1.3.4,3.18,3.18,0,0,0,3.57,0,2.29,2.29,0,0,1,2.6,0,3.17,3.17,0,0,0,3.56,0,2.29,2.29,0,0,1,2.6,0,3.18,3.18,0,0,0,3.57,0,2.17,2.17,0,0,1,1.3-.4h.2V34.7Z"/><path id="Path_77" data-name="Path 77" class="cls-2" d="M187,37.27a3.06,3.06,0,0,0-1.78.54,2.29,2.29,0,0,1-2.6,0,3.22,3.22,0,0,0-3.57,0,2.29,2.29,0,0,1-2.6,0,3.22,3.22,0,0,0-3.57,0,2.29,2.29,0,0,1-2.6,0,3.06,3.06,0,0,0-1.78-.54h-.27v.92h.27a2.18,2.18,0,0,1,1.3.41,3.18,3.18,0,0,0,3.57,0,2.29,2.29,0,0,1,2.6,0,3.17,3.17,0,0,0,3.56,0,2.29,2.29,0,0,1,2.6,0,3.18,3.18,0,0,0,3.57,0,2.18,2.18,0,0,1,1.3-.41h.2v-.92Z"/><path id="Path_78" data-name="Path 78" class="cls-2" d="M187,39.84a3,3,0,0,0-1.78.55,2.29,2.29,0,0,1-2.6,0,3.18,3.18,0,0,0-3.57,0,2.29,2.29,0,0,1-2.6,0,3.18,3.18,0,0,0-3.57,0,2.29,2.29,0,0,1-2.6,0,3,3,0,0,0-1.78-.55h-.27v.93h.27a2.17,2.17,0,0,1,1.3.4,3.18,3.18,0,0,0,3.57,0,2.29,2.29,0,0,1,2.6,0,3.17,3.17,0,0,0,3.56,0,2.29,2.29,0,0,1,2.6,0,3.18,3.18,0,0,0,3.57,0,2.17,2.17,0,0,1,1.3-.4h.2v-.93Z"/><path id="Path_79" data-name="Path 79" class="cls-2" d="M202.87,35.65a2.18,2.18,0,0,1-1.3-.41,3.22,3.22,0,0,0-3.57,0,2.29,2.29,0,0,1-2.6,0,3.22,3.22,0,0,0-3.57,0,2.29,2.29,0,0,1-2.6,0,3,3,0,0,0-1.78-.54h-.2v.92h.2a2.1,2.1,0,0,1,1.3.41,3.22,3.22,0,0,0,3.57,0,2.29,2.29,0,0,1,2.6,0,3.22,3.22,0,0,0,3.57,0,2.29,2.29,0,0,1,2.6,0,3.06,3.06,0,0,0,1.78.54,3.33,3.33,0,0,0,.84-.1v-1A2.16,2.16,0,0,1,202.87,35.65Z"/><rect id="Rectangle_34" data-name="Rectangle 34" class="cls-2" x="187.18" y="34.7" width="0.06" height="0.92"/><path id="Path_80" data-name="Path 80" class="cls-2" d="M202.87,38.22a2.12,2.12,0,0,1-1.3-.41,3.22,3.22,0,0,0-3.57,0,2.29,2.29,0,0,1-2.6,0,3.22,3.22,0,0,0-3.57,0,2.29,2.29,0,0,1-2.6,0,3,3,0,0,0-1.78-.54h-.2v.92h.2a2.16,2.16,0,0,1,1.3.41,3.18,3.18,0,0,0,3.57,0,2.29,2.29,0,0,1,2.6,0,3.18,3.18,0,0,0,3.57,0,2.29,2.29,0,0,1,2.6,0,3.31,3.31,0,0,0,2.62.44v-1A2,2,0,0,1,202.87,38.22Z"/><rect id="Rectangle_35" data-name="Rectangle 35" class="cls-2" x="187.18" y="37.27" width="0.06" height="0.92"/><path id="Path_81" data-name="Path 81" class="cls-2" d="M202.87,40.79a2.17,2.17,0,0,1-1.3-.4,3.18,3.18,0,0,0-3.57,0,2.29,2.29,0,0,1-2.6,0,3.18,3.18,0,0,0-3.57,0,2.29,2.29,0,0,1-2.6,0,3,3,0,0,0-1.78-.55h-.2v.93h.2a2.15,2.15,0,0,1,1.3.4,3.18,3.18,0,0,0,3.57,0,2.29,2.29,0,0,1,2.6,0,3.18,3.18,0,0,0,3.57,0,2.29,2.29,0,0,1,2.6,0,3,3,0,0,0,1.78.55,3.33,3.33,0,0,0,.84-.1v-1A2,2,0,0,1,202.87,40.79Z"/><rect id="Rectangle_36" data-name="Rectangle 36" class="cls-2" x="187.18" y="39.84" width="0.06" height="0.92"/><path id="Path_82" data-name="Path 82" class="cls-2" d="M79.11,34.7a3,3,0,0,0-1.79.54,2.29,2.29,0,0,1-2.6,0,3.17,3.17,0,0,0-3.56,0,2.29,2.29,0,0,1-2.6,0,3.18,3.18,0,0,0-3.57,0,2.29,2.29,0,0,1-2.6,0,3,3,0,0,0-1.79-.54h-.26v.92h.26a2.13,2.13,0,0,1,1.3.4,3.18,3.18,0,0,0,3.57,0,2.29,2.29,0,0,1,2.6,0,3.18,3.18,0,0,0,3.57,0,2.29,2.29,0,0,1,2.6,0,3.18,3.18,0,0,0,3.57,0,2.15,2.15,0,0,1,1.3-.4h.2V34.7Z"/><path id="Path_83" data-name="Path 83" class="cls-2" d="M79.11,37.27a3.09,3.09,0,0,0-1.79.54,2.29,2.29,0,0,1-2.6,0,3.2,3.2,0,0,0-3.56,0,2.29,2.29,0,0,1-2.6,0,3.22,3.22,0,0,0-3.57,0,2.29,2.29,0,0,1-2.6,0,3.09,3.09,0,0,0-1.79-.54h-.26v.92h.26a2.14,2.14,0,0,1,1.3.41,3.18,3.18,0,0,0,3.57,0,2.29,2.29,0,0,1,2.6,0,3.18,3.18,0,0,0,3.57,0,2.29,2.29,0,0,1,2.6,0,3.18,3.18,0,0,0,3.57,0,2.16,2.16,0,0,1,1.3-.41h.2v-.92Z"/><path id="Path_84" data-name="Path 84" class="cls-2" d="M79.11,39.84a3,3,0,0,0-1.79.55,2.29,2.29,0,0,1-2.6,0,3.17,3.17,0,0,0-3.56,0,2.29,2.29,0,0,1-2.6,0,3.18,3.18,0,0,0-3.57,0,2.29,2.29,0,0,1-2.6,0,3,3,0,0,0-1.79-.55h-.26v.93h.26a2.13,2.13,0,0,1,1.3.4,3.18,3.18,0,0,0,3.57,0,2.29,2.29,0,0,1,2.6,0,3.18,3.18,0,0,0,3.57,0,2.29,2.29,0,0,1,2.6,0,3.18,3.18,0,0,0,3.57,0,2.15,2.15,0,0,1,1.3-.4h.2v-.93Z"/><path id="Path_85" data-name="Path 85" class="cls-2" d="M95,35.65a2.16,2.16,0,0,1-1.3-.41,3.22,3.22,0,0,0-3.57,0,2.29,2.29,0,0,1-2.6,0,3.22,3.22,0,0,0-3.57,0,2.29,2.29,0,0,1-2.6,0,3.07,3.07,0,0,0-1.79-.54h-.2v.92h.2a2.08,2.08,0,0,1,1.3.41,3.22,3.22,0,0,0,3.57,0A2.29,2.29,0,0,1,87,36a3.22,3.22,0,0,0,3.57,0,2.29,2.29,0,0,1,2.6,0,3.07,3.07,0,0,0,1.79.54,3.44,3.44,0,0,0,.84-.1v-1A2.23,2.23,0,0,1,95,35.65Z"/><rect id="Rectangle_37" data-name="Rectangle 37" class="cls-2" x="79.31" y="34.7" width="0.06" height="0.92"/><path id="Path_86" data-name="Path 86" class="cls-2" d="M95,38.22a2.1,2.1,0,0,1-1.3-.41,3.22,3.22,0,0,0-3.57,0,2.29,2.29,0,0,1-2.6,0,3.22,3.22,0,0,0-3.57,0,2.29,2.29,0,0,1-2.6,0,3.07,3.07,0,0,0-1.79-.54h-.2v.92h.2a2.14,2.14,0,0,1,1.3.41,3.22,3.22,0,0,0,3.57,0,2.29,2.29,0,0,1,2.6,0,3.18,3.18,0,0,0,3.57,0,2.29,2.29,0,0,1,2.6,0,2.93,2.93,0,0,0,1.79.54,3,3,0,0,0,.84-.1v-1A2,2,0,0,1,95,38.22Z"/><rect id="Rectangle_38" data-name="Rectangle 38" class="cls-2" x="79.31" y="37.27" width="0.06" height="0.92"/><path id="Path_87" data-name="Path 87" class="cls-2" d="M95,40.79a2.15,2.15,0,0,1-1.3-.4,3.18,3.18,0,0,0-3.57,0,2.29,2.29,0,0,1-2.6,0,3.18,3.18,0,0,0-3.57,0,2.29,2.29,0,0,1-2.6,0,3,3,0,0,0-1.79-.55h-.2v.93h.2a2.13,2.13,0,0,1,1.3.4,3.18,3.18,0,0,0,3.57,0,2.29,2.29,0,0,1,2.6,0,3.18,3.18,0,0,0,3.57,0,2.29,2.29,0,0,1,2.6,0,3,3,0,0,0,1.79.55,3.44,3.44,0,0,0,.84-.1v-1A2,2,0,0,1,95,40.79Z"/><rect id="Rectangle_39" data-name="Rectangle 39" class="cls-2" x="79.31" y="39.84" width="0.06" height="0.92"/><path id="Path_88" data-name="Path 88" class="cls-3" d="M23.45,8a2.85,2.85,0,0,0-.5.14V9.22l.48,1.18,1.12,2.72v0h0a.18.18,0,0,1,0,.16.2.2,0,0,1-.26.12h0l-.43-.17v2.13l.52.2a.2.2,0,0,1,.11.26.2.2,0,0,1-.26.11l-.37-.14v8.46a.15.15,0,0,1,0,.07l-.34,1,0,.1V49.24a.09.09,0,0,0,0,0c.44,0,.88,0,1.33.05V8.11A3.83,3.83,0,0,0,23.93,8,2.61,2.61,0,0,0,23.45,8Z"/><path id="Path_89" data-name="Path 89" class="cls-1" d="M22.92,12.45h0l.41.16.33.13.34.13-.12-.28-.21-.53-.4-1-.34-.82v0L22.81,10l-.29-.7L21,5.49v6.2l1.55.61Z"/><path id="Path_90" data-name="Path 90" class="cls-1" d="M23.91,4.46,22.72,7.82,23,7.74a2.71,2.71,0,0,1,.51-.12,2.06,2.06,0,0,1,.26,0h.21a4.37,4.37,0,0,1,1.13.18l.21.06Z"/><path id="Path_91" data-name="Path 91" class="cls-1" d="M18,12.83l.19-.08.11-.05,2.25-1V5.84L17.73,13Z"/><path id="Path_92" data-name="Path 92" class="cls-3" d="M22.92,12.88l-.4-.15L21,12.13v2.14l1,.38v-.86s0-.44.33-.33a.31.31,0,0,1,.18.19,1,1,0,0,1,.06.34v.88l.33.13h0l.56.21V13.1l-.56-.22Z"/><path id="Path_93" data-name="Path 93" class="cls-3" d="M22.91,15.43l-.39-.15L21,14.7V36.83a.13.13,0,0,1,0,.06V49c.5.09,1,.15,1.51.2l.2,0,.19,0h.18V25.37s0,0,0-.06l.38-1.07V15.65l-.55-.21ZM22.37,34.8l-.57-.09V32.92l.57.09Zm0-2.4-.57-.09V30.52l.57.09Zm0-2.32L21.8,30V28.2l.57.15Zm0-3.49v1.22l-.57-.16V26.39s0-.44.33-.33.24.53.24.53Zm.68-7.65a1.6,1.6,0,0,1-.12.68s0,.05,0,.08a.68.68,0,0,1-.37.34l-.07,0A.48.48,0,0,1,22,20a1.06,1.06,0,0,1-.33-.8c0-.43.15-1,.53-1.11a.58.58,0,0,1,.47.06.63.63,0,0,1,.2.23.21.21,0,0,1,0,.06,1.25,1.25,0,0,1,.12.54Z"/><path id="Path_94" data-name="Path 94" class="cls-4" d="M25.22,47.72h2.4v-2.3h-2.4ZM26.53,46H27v1.35h-.5Zm-.91,0h.51v1.35h-.51Z"/><path id="Path_95" data-name="Path 95" class="cls-1" d="M26.48,43.35H25.22V45h2.24l-1-1.61S26.49,43.37,26.48,43.35Z"/><path id="Path_96" data-name="Path 96" class="cls-4" d="M28,47.72h1.62V43.15l-2.71.19L28,45.12h0a.13.13,0,0,1,0,.09h0v2.49Z"/><path id="Path_97" data-name="Path 97" class="cls-4" d="M20.62,14.26V12.15l-2.23,1-.05,0-.14.06v2.2l.17-.08h0l.5-.24V14s0-.44.24-.53.33.34.33.34v1Z"/><path id="Path_98" data-name="Path 98" class="cls-3" d="M16.13,36.16h-.05V47.64c.33.14.67.26,1,.37V36.34l-.92-.17Zm.3.68.29.06v1.71l-.29,0Z"/><path id="Path_99" data-name="Path 99" class="cls-1" d="M8.54,34l-.21-.31,0-.07-.51-.73a.14.14,0,0,0-.23,0L6,35.58l-.48.86,0,.16.09.54,0,.18,3.41-1,.28-1.15-.65-1Z"/><path id="Path_100" data-name="Path 100" class="cls-4" d="M10.88,44.8l.46.33v-.77l.57-.08v1.23l.47.29V36l-1.5.34Zm.46-6.93.57-.08v1.79l-.57.09Zm0,3.18.57-.08v1.78l-.57.09Z"/><path id="Path_101" data-name="Path 101" class="cls-4" d="M9.48,43.72c.32.27.66.53,1,.79V36.4l-1,.27ZM9.83,37l.29-.06v1.67l-.29,0Z"/><path id="Path_102" data-name="Path 102" class="cls-1" d="M10.44,36l-.17-.75-.13-.57-.1-.44-.25,1-.24,1h0l.15,0,.74-.21Z"/><path id="Path_103" data-name="Path 103" class="cls-4" d="M5.73,39.82a23.4,23.4,0,0,0,1.71,2v-.38L8,41.36v1l.5.47V41.26l.57-.08V40l-.56.09V38.18l.56-.11V36.78l-3.35.95Zm1.72-1.43L8,38.28V40.2l-.57.1Zm-1,.2L7,38.48v1.87l-.57.09Z"/><path id="Path_104" data-name="Path 104" class="cls-4" d="M9.08,43.38V43l-.4.06Z"/><path id="Path_105" data-name="Path 105" class="cls-4" d="M4.49,38.07a1.88,1.88,0,0,0,.16.23c.21.34.44.66.67,1V37.86L4.65,38Z"/><path id="Path_106" data-name="Path 106" class="cls-1" d="M5.26,37.14l0-.13,0-.18,0-.19,0-.28-.2-1.27-.33,2.53.11,0L5,37.52l.16,0,.12,0v0h0Z"/><path id="Path_107" data-name="Path 107" class="cls-3" d="M17.48,38.27l.38,0v1.8l-.38-.06v1.4l.38,0v1.8l-.38-.06v1.38l.38,0v1.8l-.38-.07v1.74a26.11,26.11,0,0,0,3.13.8V37l-3.13-.58Zm1.93.3.57.08v1.8l-.57-.1Zm0,3.19.57.08v1.8l-.57-.1Zm0,3.17L20,45V46.8l-.57-.09Zm-1.05-6.5.57.08V40.3l-.57-.09Zm0,3.19.57.08v1.79l-.57-.09Zm0,3.17.57.08v1.79l-.57-.09Z"/><path id="Path_108" data-name="Path 108" class="cls-1" d="M17.48,36l2.93.55-.65-1.07-1.1-1.6-.09-.11-.2-.3-.2-.29-4.45-6.47,0-.05-.15-.22v-1a.13.13,0,1,0-.26,0h0v1.06l-.15.24-1.65,2.53L8.71,33.49l.08.12.19.28.53.78.34-1.38a.2.2,0,0,1,.2-.15h0a.2.2,0,0,1,.2.16l.19.85.13.58.26,1.17,1.57-.36.77-3.9a.2.2,0,0,1,.4,0l.76,3.83,1.38.21L16,34.31l.14-.55.18-.74a.19.19,0,0,1,.19-.15h0a.19.19,0,0,1,.2.15l.74,2.89h0v0h0Z"/><path id="Path_109" data-name="Path 109" class="cls-4" d="M18.37,15.76h0l-.17.09v8.39l.38,1.07s0,0,0,.07v7.68l.27.4.16.23L20.61,36V34.64a.06.06,0,0,0,0,0V14.71l-2,.93Zm1.15,10.3c.34-.11.33.33.33.33v1.25l-.57.16V26.58s0-.44.24-.52Zm.33,6.24-.57.09V30.6l.57-.08Zm0-2.32-.57.1V28.36l.57-.16Zm-.72-11.93a.56.56,0,0,1,.47.06,1,1,0,0,1,.36.83c0,.49-.19,1-.6,1.12l-.12,0a.49.49,0,0,1-.32-.12.84.84,0,0,1-.27-.44,2.25,2.25,0,0,1-.06-.36,2.05,2.05,0,0,1,.06-.49.83.83,0,0,1,.48-.61Z"/><path id="Path_110" data-name="Path 110" class="cls-1" d="M17,35.73l-.25-1-.21-.82-.08.34-.14.56-.2.83.77.09Z"/><path id="Path_111" data-name="Path 111" class="cls-1" d="M13.89,35.4l-.53-2.68-.53,2.69.5-.09h.07Z"/><path id="Path_112" data-name="Path 112" class="cls-1" d="M27.53,39.16a.2.2,0,0,1-.13,0H25.22v3.74h1.55l2.76-.2,1.88-6.67Z"/><path id="Path_113" data-name="Path 113" class="cls-3" d="M13.37,35.73l-.59.13V46c.3.18.61.35.93.52l.2.11h0V35.82l-.23,0Zm.13,2.5h-.27V36.46h.27Z"/><path id="Path_114" data-name="Path 114" class="cls-3" d="M14.35,46.88c.43.21.88.41,1.33.59V36.09l-1.33-.21Zm.41-9.09.57.08v1.79l-.57-.09Zm0,3.18.57.08v1.79l-.57-.09Zm0,3.43.57.08v1.8l-.57-.09Z"/><path id="Path_115" data-name="Path 115" class="cls-3" d="M35.1,44.61l4.06.19c.48-.34,1-.71,1.4-1.08l-5.46-.37Z"/><path id="Path_116" data-name="Path 116" class="cls-1" d="M38.38,38.18l3-.2,1.11-2.07,0,0-8.57-1.63-.11.08-.72.52h0L35.65,43l5.35.36.28-.24,0,0V38.39l-2.71.18v2.72a.18.18,0,0,1-.11.17l0,0a.21.21,0,0,1-.25-.12.17.17,0,0,1,0-.07V38.38A.2.2,0,0,1,38.38,38.18Z"/><path id="Path_117" data-name="Path 117" class="cls-3" d="M35.1,47.15l.58-.27V45.59h.51v1l.4-.21v-.82h.5v.54c.52-.3,1-.62,1.53-1L35.1,45Z"/><path id="Path_118" data-name="Path 118" class="cls-3" d="M32.59,44.18a5.17,5.17,0,0,0-2.54.53v3h.67a.2.2,0,0,1,.2.2h0v.7a24,24,0,0,0,3.78-1.28V44.71h0S34.28,44.18,32.59,44.18Zm-.85,1.47v1.22l-.57,0V45.46s0-.44.33-.33.24.53.24.53Zm1.13,0v1.22l-.57,0V45.46s0-.44.33-.33.24.53.24.53Zm1.2,0v1.22l-.57,0V45.46s0-.44.33-.33.24.53.24.53Z"/><path id="Path_119" data-name="Path 119" class="cls-3" d="M33.26,42.19a5.24,5.24,0,0,0-.88-.08,3.31,3.31,0,0,0-2.34.72v1.43a6,6,0,0,1,2.54-.48,4.07,4.07,0,0,1,2.12.43V42.76a4,4,0,0,0-1.44-.57Z"/><path id="Path_120" data-name="Path 120" class="cls-1" d="M32.7,35.08l0-.1-.1-.3-.18-.57-.25.89-.14.5,0,.14v0L30.07,42.3a3.19,3.19,0,0,1,.64-.32,4.76,4.76,0,0,1,1.67-.27h.25a4.7,4.7,0,0,1,2.45.8L32.7,35.1Z"/><path id="Path_121" data-name="Path 121" class="cls-1" d="M43.14,36.47l.63,2.06v2l.08-.08q.8-1,1.5-2l-.08-.07Z"/><path id="Path_122" data-name="Path 122" class="cls-3" d="M41.7,38.22v4.47A22.47,22.47,0,0,0,43.37,41V38.62l-.68-2.24Zm1.12,1.34v1.23h-.57V39.37s0-.44.33-.33.24.52.24.52Z"/><path id="Path_123" data-name="Path 123" class="cls-4" d="M25.22,49.34a24.29,24.29,0,0,0,5.3-.62v-.6h-5.3Z"/><path id="Path_124" data-name="Path 124" class="cls-2" d="M18.66,19.52a.83.83,0,0,0,.26.44.52.52,0,0,0,.33.12l.11,0c.41-.09.61-.63.6-1.12a1,1,0,0,0-.36-.83.56.56,0,0,0-.47-.06.85.85,0,0,0-.47.62,1.38,1.38,0,0,0-.06.49A1.13,1.13,0,0,0,18.66,19.52Z"/><path id="Path_125" data-name="Path 125" class="cls-2" d="M22.89,18.34a.74.74,0,0,0-.2-.23L22.52,18a.51.51,0,0,0-.3,0,1.11,1.11,0,0,0-.53,1.1A1,1,0,0,0,22,20a.51.51,0,0,0,.44.1l.07,0a.7.7,0,0,0,.36-.34l.05-.09a1.53,1.53,0,0,0,.12-.67h0a1.42,1.42,0,0,0-.12-.54Z"/><path id="Path_126" data-name="Path 126" class="cls-2" d="M19.85,27.64V26.39s0-.44-.33-.33-.24.53-.24.53V27.8Z"/><path id="Path_127" data-name="Path 127" class="cls-2" d="M19.27,30.08l.57-.1V28.19l-.57.16Z"/><path id="Path_128" data-name="Path 128" class="cls-2" d="M19.27,32.39l.57-.09V30.52l-.57.08Z"/><path id="Path_129" data-name="Path 129" class="cls-2" d="M22.13,26.06c-.34-.11-.33.33-.33.33v1.25l.57.17V26.59S22.39,26.14,22.13,26.06Z"/><path id="Path_130" data-name="Path 130" class="cls-2" d="M21.8,30l.57.1V28.36l-.57-.16Z"/><path id="Path_131" data-name="Path 131" class="cls-2" d="M21.8,32.3l.57.09V30.6l-.57-.08Z"/><path id="Path_132" data-name="Path 132" class="cls-2" d="M21.8,34.71l.57.09V33l-.57-.09Z"/><path id="Path_133" data-name="Path 133" class="cls-2" d="M18.93,38.51l-.57-.09v1.79l.57.09Z"/><path id="Path_134" data-name="Path 134" class="cls-2" d="M20,38.65l-.57-.08v1.78l.57.09Z"/><path id="Path_135" data-name="Path 135" class="cls-2" d="M18.93,41.7l-.57-.08V43.4l.57.09Z"/><path id="Path_136" data-name="Path 136" class="cls-2" d="M20,41.84l-.57-.08v1.78l.57.09Z"/><path id="Path_137" data-name="Path 137" class="cls-2" d="M18.93,44.86l-.57-.08v1.78l.57.1Z"/><path id="Path_138" data-name="Path 138" class="cls-2" d="M20,45l-.57-.08v1.78l.57.09Z"/><path id="Path_139" data-name="Path 139" class="cls-2" d="M15.33,37.87l-.57-.08v1.78l.57.1Z"/><path id="Path_140" data-name="Path 140" class="cls-2" d="M15.33,41.05,14.76,41v1.78l.57.09Z"/><path id="Path_141" data-name="Path 141" class="cls-2" d="M15.33,44.48l-.57-.08v1.79l.57.09Z"/><path id="Path_142" data-name="Path 142" class="cls-2" d="M11.91,37.79l-.57.08v1.79l.57-.09Z"/><path id="Path_143" data-name="Path 143" class="cls-2" d="M11.91,41l-.57.08v1.8l.57-.1Z"/><path id="Path_144" data-name="Path 144" class="cls-2" d="M8,38.28l-.57.11V40.3L8,40.21Z"/><path id="Path_145" data-name="Path 145" class="cls-2" d="M7,38.48l-.57.12v1.84L7,40.35Z"/><path id="Path_146" data-name="Path 146" class="cls-2" d="M42.58,39c-.34-.11-.33.33-.33.33V40.8h.57V39.57S42.84,39.12,42.58,39Z"/><path id="Path_147" data-name="Path 147" class="cls-2" d="M32.63,45.13c-.34-.11-.33.33-.33.33v1.43l.57,0V45.66S32.89,45.21,32.63,45.13Z"/><path id="Path_148" data-name="Path 148" class="cls-2" d="M33.83,45.13c-.34-.11-.33.33-.33.33v1.43l.57,0V45.66S34.1,45.21,33.83,45.13Z"/><path id="Path_149" data-name="Path 149" class="cls-2" d="M31.5,45.13c-.34-.11-.33.33-.33.33v1.43l.57,0V45.66S31.76,45.21,31.5,45.13Z"/><rect id="Rectangle_40" data-name="Rectangle 40" class="cls-2" x="25.62" y="46" width="0.5" height="1.35"/><rect id="Rectangle_41" data-name="Rectangle 41" class="cls-2" x="26.53" y="46" width="0.5" height="1.35"/><path id="Path_150" data-name="Path 150" class="cls-2" d="M16.72,36.9l-.28-.06v1.73l.28,0Z"/><path id="Path_151" data-name="Path 151" class="cls-2" d="M10.12,36.89,9.83,37v1.65l.29,0Z"/><rect id="Rectangle_42" data-name="Rectangle 42" class="cls-2" x="13.23" y="36.45" width="0.27" height="1.77"/><path id="Path_152" data-name="Path 152" class="cls-2" d="M25,0A25,25,0,1,0,37,46.94l.07,0A25.26,25.26,0,0,0,46,38.61,25,25,0,0,0,25,0ZM5.33,39.29c-.24-.33-.46-.65-.68-1l-.15-.23.15,0,.68-.17Zm0-1.86v0l-.12,0-.15,0-.33.08-.11,0,.33-2.53.2,1.27,0,.28,0,.19,0,.18,0,.13,0,.29h0Zm3.77,6L8.68,43l.4-.06Zm0-5.31-.56.11v1.94L9.08,40v1.14l-.57.08v1.62L8,42.4v-1l-.57.08v.39a23.4,23.4,0,0,1-1.71-2V37.73l3.35-.94Zm0-1.72-3.41,1,0-.18-.09-.54,0-.16L6,35.58l1.51-2.71a.14.14,0,0,1,.11-.07.14.14,0,0,1,.12.06l.51.72,0,.07.21.31.2.29.65,1Zm1.37,8.16-1-.79v-7l1-.27Zm-.92-8.28h0l.23-1,.25-1,.1.43.13.58.17.75h0l-.73.2Zm2.82,9.57-.47-.29V44.27l-.57.09v.77l-.46-.33V36.3l1.5-.34Zm1.57.86v0l0,0-.2-.11c-.31-.16-.62-.34-.93-.51V35.86l.59-.13.34.05.24,0ZM12.83,35.41l.53-2.69.53,2.68-.5-.08h-.07Zm2.84,12.07q-.67-.28-1.32-.6v-11l1.32.21Zm1.4.53-1-.37V36.15h.08l.92.17Zm-.94-12.37.2-.84.13-.55.08-.34.21.81.26,1h-.12Zm1.35.29h0L16.74,33a.2.2,0,0,0-.2-.15h0a.22.22,0,0,0-.2.16l-.17.73-.14.55-.34,1.38-1.38-.22-.75-3.83a.2.2,0,0,0-.4,0l-.77,3.9-1.57.36-.26-1.17-.13-.57-.2-.86a.2.2,0,0,0-.2-.16h0a.21.21,0,0,0-.2.16L9.5,34.67,9,33.89l-.18-.27-.09-.13,2.76-4.25L13.1,26.7l.15-.23V25.39a.13.13,0,0,1,.14-.13.13.13,0,0,1,.13.13h0v1.05l.15.21,0,.05,4.46,6.48.19.28.21.3.08.12,1.1,1.6.66,1.06L17.47,36v0h0v0Zm3.13,13a26.11,26.11,0,0,1-3.13-.8V46.41l.38.06V44.68l-.38,0V43.25l.38.06v-1.8l-.38,0V40.05l.38.07v-1.8l-.38,0V36.41l3.13.58Zm0-14.35V36L19,33.7l-.16-.24-.27-.4V25.38a.19.19,0,0,0,0-.07l-.37-1.06v-8.4l.17-.08h0l.26-.12,2-.93Zm-1.5-21.13c-.26.08-.24.52-.24.52v1.09l-.5.23,0,0-.17.07V13.2l.14-.06.05,0,2.23-1v2.12l-1.17.55v-1s0-.45-.33-.34Zm1.45-7.53v5.78l-2.25,1-.11,0-.19.09-.29.12,2.84-7.11Zm2.91,18.3L23.1,25.3s0,.05,0,.07V49.26h-.18l-.19,0-.2,0c-.5-.05-1-.12-1.5-.2V14.7l1.5.58.39.15h0l.55.22Zm0-9L22.93,15h0l-.33-.13V14a1,1,0,0,0-.06-.34.29.29,0,0,0-.18-.19c-.34-.11-.33.33-.33.33v.86l-1-.39,0-2.13,1.51.59.4.16h0l.55.21ZM21,11.68V5.48l1.55,3.78.29.71.12.27v0l.34.82.4,1,.22.54.12.27-.34-.13-.33-.13-.41-.16h0l-.4-.15Zm3.85,36.24v1.41c-.45,0-.89,0-1.33,0,0,0,0,0,0,0V25.41l0-.11.34-.95a.2.2,0,0,0,0-.07V15.81l.37.15a.2.2,0,0,0,.26-.12.2.2,0,0,0-.11-.26h0l-.52-.2V13.26l.43.16a.2.2,0,0,0,.26-.11h0a.2.2,0,0,0,0-.17h0L23.43,10.4l-.49-1.18V8.17a2.85,2.85,0,0,1,.5-.14,2.59,2.59,0,0,1,.48,0,3.35,3.35,0,0,1,.89.12ZM23.93,7.58h-.21l-.26,0a3.81,3.81,0,0,0-.51.12l-.23.09,1.19-3.36,1.36,3.36-.22-.07a4.22,4.22,0,0,0-1.12-.17Zm9.64,17a2.77,2.77,0,0,0,.11.64.2.2,0,0,0,.19.13H34c.28.57.52,1.15.74,1.74l-2.5,1.44A7.06,7.06,0,0,0,30.75,26l1.53-2.64h.42a10.18,10.18,0,0,1,.87,1.2Zm-.21-1.34a.36.36,0,0,1,0-.07l0-.19.3.3c0,.05-.07.37-.07.37s-.19-.26-.31-.41Zm1.51,4.25a13.9,13.9,0,0,1,.6,3.95h-2.7a9,9,0,0,0-.39-2.52Zm-.12-2.13h.52s.19.32.21.37h-.22a.21.21,0,0,0-.19.13l0,.11-.29-.61Zm.71,6.48a14.67,14.67,0,0,1-.22,2.29l-1.37-.26a.22.22,0,0,0-.16,0l-.79.57-.34-1a9.58,9.58,0,0,0,.19-1.59ZM28,45.22h0a.19.19,0,0,0,0-.08h0l-1.06-1.78,2.71-.2v4.57H28V45.22Zm-.4.2v2.29h-2.4V45.42Zm-2.4-.4V43.35h1.26s0,0,0,.06l1,1.61Zm4.31-2.27-2.76.2H25.22V39.2H27.4a.2.2,0,0,0,.13,0l3.88-3.07Zm-3.3-12.82a2.4,2.4,0,0,0-.57,1.47h-.44V28.18Zm-1-2.56v-2a4,4,0,0,1,1.9-.61v4.64a1.34,1.34,0,0,0-.58.23Zm.45,4.43a2.3,2.3,0,0,0,.59,1.38l-1,1.8V31.8Zm.9,1.65a1.53,1.53,0,0,0,.51.21V38.3a4,4,0,0,1-1.86-.61v-1.9Zm.51,5.25v.1H25.22v-.64a4.21,4.21,0,0,0,1.86.54Zm.4-.4V33.67a1.39,1.39,0,0,0,.62-.24L30,36.7l-1.94,1.53a3.7,3.7,0,0,1-.57.07Zm2.83-1.86-1.9-3.29a2.67,2.67,0,0,0,.32-.48l3.13,1.81-.27.94ZM28.45,30h0l2.09-3.63A6.81,6.81,0,0,1,31.9,28.7l-3.13,1.8a2.2,2.2,0,0,0-.32-.53Zm.42,2.32a2.84,2.84,0,0,0,.1-.49h3.39a9.34,9.34,0,0,1-.19,1.58l-.2.7h0l0,0Zm.1-.89a2.74,2.74,0,0,0-.07-.5L32,29.1a9,9,0,0,1,.34,2.3Zm1.49-5.72a4.73,4.73,0,0,0-2.95-1.31V21.76H28a.2.2,0,0,0,.19-.13,5.76,5.76,0,0,0,.18-.59,4,4,0,0,1,.49,0A4,4,0,0,0,29,22a.2.2,0,0,0,.19.13h1.36a.19.19,0,0,0,.18-.13s.05-.11.1-.27c.19.13.38.26.56.41a3.81,3.81,0,0,0,.2,1.11.21.21,0,0,0,.19.13h0Zm-.21.36-2.11,3.65a1.44,1.44,0,0,0-.63-.28V24.78A4.27,4.27,0,0,1,30.26,26ZM28.57,31.4v.2a1.34,1.34,0,0,1,0,.2c-.09.83-.61,1.48-1.25,1.48s-1.15-.65-1.24-1.48a1.34,1.34,0,0,1,0-.2v-.2c.05-.9.6-1.6,1.26-1.6s1.2.7,1.25,1.6Zm-1.46-7a4.34,4.34,0,0,0-1.9.54V22.1h.07a.21.21,0,0,0,.19-.13,2.91,2.91,0,0,0,.12-.39,7.25,7.25,0,0,1,.74-.26l.09.31a.21.21,0,0,0,.19.13h.5Zm3.4,24.34a24.21,24.21,0,0,1-5.3.62V48.12h5.3Zm4.19-1.39a25.52,25.52,0,0,1-3.78,1.29v-.7a.2.2,0,0,0-.2-.2H30v-3a5.31,5.31,0,0,1,2.54-.54c1.7,0,2.11.54,2.11.54h0Zm0-3.12a4.11,4.11,0,0,0-2.12-.43,6,6,0,0,0-2.54.48V42.83a3.33,3.33,0,0,1,2.33-.72,4.41,4.41,0,0,1,.89.09,4,4,0,0,1,1,.32,5.05,5.05,0,0,1,.45.25Zm-2.08-2.49-.25,0a4.71,4.71,0,0,0-1.66.28,3,3,0,0,0-.64.32l1.87-6.64v0l0-.15.14-.5.25-.89.19.57.09.3,0,.11h0l2.38,7.43a4.73,4.73,0,0,0-2.44-.81Zm4.47,4.41v-.54h-.51v.82l-.4.22v-1h-.5v1.29l-.58.27V45l3.51.17c-.49.33-1,.65-1.52,1Zm2.06-1.33-4-.19V43.35l5.46.37c-.45.37-.92.74-1.4,1.08Zm-.77-3.31a.2.2,0,0,0,.2-.2V38.57l2.71-.18v4.69l0,0-.28.24L35.64,43,33,34.85h0l.72-.52.11-.07,8.57,1.63,0,0L41.37,38l-3,.2a.21.21,0,0,0-.19.2v2.91a.2.2,0,0,0,.2.2h0Zm-2.25-10c0-.14,0-.27,0-.4h.66l0,.4Zm.54,2.5c0,.13,0,.26-.07.4l-.71-.14.06-.3a.21.21,0,0,0,.11,0ZM36,28.57a.17.17,0,0,0-.12,0l-.09-.42h.53c0,.13.07.25.1.38Zm7.4,12.35V41c-.52.6-1.08,1.17-1.66,1.72h0V38.23l1-1.85.68,2.24Zm.47-.51-.07.08v-1.9a.13.13,0,0,0,0-.06l-.62-2.06,2.13,1.82.08.08a25,25,0,0,1-1.51,2ZM45.57,38h0l-2.69-2.3,0,0-.19-.16a.19.19,0,0,0-.1,0l-5.27-1,.09-.53h0a.2.2,0,0,0,.19-.13,3.36,3.36,0,0,0,.24-1.13,3,3,0,0,0-.24-1.11.18.18,0,0,0-.09-.1,4.07,4.07,0,0,0,0-.5.13.13,0,0,0,0-.05,3.62,3.62,0,0,0,.24-1.13,3.36,3.36,0,0,0-.24-1.12.2.2,0,0,0-.19-.12h-.21c-.07-.27-.14-.53-.22-.79a3,3,0,0,0,.15-.85,3.56,3.56,0,0,0-.24-1.11.21.21,0,0,0-.19-.12h-.46c-.18-.27-.37-.49-.52-.73a3,3,0,0,0,.1-.66,4.23,4.23,0,0,0-.27-1.22.31.31,0,0,0-.25-.13H34.1c-.17-.17-.35-.34-.54-.5,0-.12,0-.24,0-.37A3.26,3.26,0,0,0,33.35,21a.19.19,0,0,0-.18-.13H31.81a.22.22,0,0,0-.19.13s0,.07-.05.16L31,20.9v0a3.5,3.5,0,0,0-.24-1.11.2.2,0,0,0-.19-.12H29.21a.21.21,0,0,0-.19.13c0,.13-.08.26-.11.4a3.69,3.69,0,0,0-.56-.11,3.61,3.61,0,0,0-.19-.64.18.18,0,0,0-.18-.12H26.62a.2.2,0,0,0-.19.13,3.23,3.23,0,0,0-.16.63c-.22,0-.44.08-.66.13a3.73,3.73,0,0,0-.14-.44.2.2,0,0,0-.19-.12h-.06V8.22h0a.42.42,0,0,0,.41-.4.45.45,0,0,0,0-.16L24.28,4.31a.41.41,0,0,0-.38-.25h0a.41.41,0,0,0-.37.27L22.34,7.69a.09.09,0,0,0,0,0L21.06,4.66a.19.19,0,0,0-.26-.11h0a.18.18,0,0,0-.19.12l-3.38,8.47s0,0,0,.06a.2.2,0,0,0,0,.21.21.21,0,0,0,.19.12l.08,0,.33-.14v2.22l-.5.23a.2.2,0,0,0-.1.27.2.2,0,0,0,.27.09l.32-.15v8.25s0,0,0,.06l.38,1.07v7.06l-4.24-6.16v-.92a.54.54,0,0,0-1.07,0v.95L8.6,32.91l-.14.22-.05-.07h0l-.31-.44a.53.53,0,0,0-.91.05L5.45,35.79,5.33,35a.39.39,0,0,0-.4-.33h0a.41.41,0,0,0-.4.35L4.2,37.56v0A24.34,24.34,0,1,1,45.57,38Z"/><path id="Path_153" data-name="Path 153" class="cls-4" d="M41.29,43.05V38.39l-2.7.18v2.72a.19.19,0,0,1-.12.17l0,0h-.06l2.91,1.59Z"/></svg>